<svg width="1731" height="66" viewBox="0 0 1731 66" fill="none" xmlns="http://www.w3.org/2000/svg">
<path d="M1 45.5054L55.2891 17.3623C75.8952 6.68024 101.113 11.2309 116.685 28.4418V28.4418C135.142 48.8395 166.435 50.9623 187.476 33.244L191.87 29.5441C212.417 12.2425 242.865 13.2011 262.523 31.5056V31.5056C282.666 50.2606 314.104 50.4801 334.255 31.7342V31.7342C354.063 13.307 384.634 12.959 404.857 30.9304L412.042 37.3154C418.128 42.7242 425.204 46.9028 432.88 49.6204L442.723 53.1054C464.106 60.6765 487.699 58.8136 507.629 47.9804L543.066 28.7181C549.29 25.335 555.936 22.7936 562.829 21.1605L629.115 5.45673C644.815 1.73716 661.14 8.43543 669.704 22.1105L674.16 29.2263C685.324 47.0554 710.519 49.0801 724.387 33.2625V33.2625C735.371 20.7347 754.227 18.9658 767.349 29.2321L782.789 41.3115C800.792 55.3962 825.871 56.1113 844.647 43.0752L853.874 36.6692C876.301 21.0984 905.908 20.6035 928.844 35.4159L934.079 38.7971C958.872 54.8097 990.655 55.1695 1015.8 39.7224L1040.59 24.4982C1065.89 8.96045 1097.71 8.7091 1123.25 23.8453L1155.65 43.051C1176.7 55.5224 1203.76 50.0688 1218.33 30.4214V30.4214C1236.91 5.37954 1274.36 4.88663 1294 29.0995V29.0995C1310.21 49.0796 1339.43 53.0772 1360.19 37.8904L1389.51 16.4532C1418.23 -4.5519 1457.37 -4.06155 1485.56 17.6564L1498.17 27.3719C1526.95 49.5469 1567.43 49.2591 1596.2 27.0792V27.0792C1629.58 1.35012 1677.65 5.58605 1705.51 37.2079L1730 65" stroke="black" stroke-opacity="0.4" stroke-linecap="round"/>
</svg>
